<?xml version="1.0" encoding="utf-8"?>
<svg version="1.1" id="Layer_2" xmlns="http://www.w3.org/2000/svg" xmlns:xlink="http://www.w3.org/1999/xlink" x="0px" y="0px"
	 width="649.5px" height="653.5px" viewBox="0 0 649.5 653.5" style="enable-background:new 0 0 649.5 653.5;" xml:space="preserve"
	>
<style type="text/css">
	.st0{fill:#164477;}
	.st1{fill:#3399CC;}
</style>
<g>
	<g>
		<path class="st0" d="M378,89v67.8c72.6,22.6,125.5,90.2,125.5,169.9c0,98.1-80.2,177.9-178.7,177.9S146,424.8,146,326.7
			c0-79.7,52.9-147.2,125.5-169.9V89C163.9,113.5,83.6,210.6,83.6,326.7c0,134.6,107.9,243.7,241.1,243.7s241.1-109.1,241.1-243.7
			C565.8,210.6,485.5,113.5,378,89z"/>
	</g>
	<path class="st1" d="M324.7,148.8c12.4,0,24.5,1.3,36.3,3.7V85.8C349.2,84,337.1,83,324.7,83s-24.4,0.9-36.3,2.7v66.7
		C300.2,150,312.3,148.8,324.7,148.8z"/>
	<g>
		<path class="st1" d="M324.7,167c-12.5,0-24.6,1.4-36.2,4.1v308.5c11.6,2.7,23.8,4.1,36.2,4.1c12.5,0,24.6-1.4,36.3-4.1V171.2
			C349.3,168.4,337.2,167,324.7,167z"/>
	</g>
</g>
</svg>
