<?xml version="1.0" encoding="utf-8"?>
<!-- Generator: Adobe Illustrator 19.0.0, SVG Export Plug-In . SVG Version: 6.00 Build 0)  -->
<svg version="1.1" id="Layer_2" xmlns="http://www.w3.org/2000/svg" xmlns:xlink="http://www.w3.org/1999/xlink" x="0px" y="0px"
	 width="648.5px" height="652.8px" viewBox="0 0 648.5 652.8" style="enable-background:new 0 0 648.5 652.8;" xml:space="preserve"
	>
<style type="text/css">
	.st0{fill:#164477;}
	.st1{fill:#3399CC;}
</style>
<g>
	<g>
		<path class="st0" d="M386,91v68.6c68.2,25.1,117,90.5,117,167c0,98.1-80.2,177.9-178.7,177.9s-178.7-79.8-178.7-177.9
			c0-76.5,48.8-141.9,117-167V91C159.2,118.5,83.1,213.5,83.1,326.5c0,134.6,107.9,243.7,241.1,243.7s241.1-109.1,241.1-243.7
			C565.3,213.5,489.2,118.5,386,91z"/>
	</g>
	<path class="st1" d="M324.2,148.6c12.4,0,24.5,1.3,36.3,3.7V85.6c-11.8-1.8-23.9-2.7-36.3-2.7s-24.4,0.9-36.3,2.7v66.7
		C299.7,149.9,311.8,148.6,324.2,148.6z"/>
	<g>
		<path class="st1" d="M324.2,175.3c-12.5,0-24.6,1.5-36.2,4.4v291c11.6,2.9,23.8,4.4,36.2,4.4c12.5,0,24.6-1.5,36.3-4.4v-291
			C348.9,176.9,336.7,175.3,324.2,175.3z"/>
	</g>
</g>
</svg>
