<?xml version="1.0" encoding="utf-8"?>
<!-- Generator: Adobe Illustrator 21.0.0, SVG Export Plug-In . SVG Version: 6.00 Build 0)  -->
<svg version="1.1" id="Layer_1" xmlns="http://www.w3.org/2000/svg" xmlns:xlink="http://www.w3.org/1999/xlink" x="0px" y="0px"
	 viewBox="0 0 550 370" style="enable-background:new 0 0 550 370;" xml:space="preserve">
<style type="text/css">
	.st0{fill:#144578;}
	.st1{fill:#3499CC;}
</style>
<g>
	<path class="st0" d="M293.2,244.1h-2.4v-3.2h-8.3v3.2h-2.4v-6.5c0-1,0.2-1.8,0.5-2.6s0.8-1.5,1.4-2.1c0.6-0.6,1.3-1,2.1-1.3
		c0.8-0.3,1.7-0.5,2.6-0.5h5.3c0.2,0,0.3,0,0.5,0.1c0.1,0.1,0.3,0.1,0.4,0.3c0.1,0.1,0.2,0.2,0.3,0.4c0.1,0.1,0.1,0.3,0.1,0.5V244.1
		z M282.6,238.5h8.3v-5.1h-4.1c-0.1,0-0.2,0-0.5,0c-0.2,0-0.5,0.1-0.8,0.2c-0.3,0.1-0.6,0.2-1,0.4s-0.7,0.4-0.9,0.7
		s-0.5,0.7-0.7,1.2s-0.3,1-0.3,1.7V238.5z"/>
	<path class="st0" d="M306.4,242.9c0,0.2,0,0.3-0.1,0.5c-0.1,0.1-0.1,0.3-0.3,0.4c-0.1,0.1-0.2,0.2-0.4,0.3
		c-0.1,0.1-0.3,0.1-0.5,0.1h-5.3c-0.3,0-0.6,0-0.9-0.1c-0.3-0.1-0.7-0.2-1-0.3s-0.6-0.3-0.9-0.6c-0.3-0.2-0.6-0.5-0.8-0.8
		c-0.2-0.3-0.4-0.7-0.5-1.1c-0.1-0.4-0.2-0.9-0.2-1.4v-5.4h2.4v5.4c0,0.3,0.1,0.6,0.2,0.8c0.1,0.2,0.3,0.5,0.4,0.6s0.4,0.3,0.6,0.4
		s0.5,0.1,0.8,0.1h4.1v-7.5h2.4V242.9z"/>
	<path class="st0" d="M317.5,236.6h-4.1v7.5H311v-7.5H308v-2.4h3.1v-3.2h2.4v3.2h4.1V236.6z"/>
	<path class="st0" d="M329.7,240.8c0,0.4-0.1,0.8-0.2,1.1c-0.1,0.3-0.2,0.6-0.4,0.9c-0.2,0.2-0.4,0.5-0.6,0.6
		c-0.2,0.2-0.5,0.3-0.7,0.4c-0.2,0.1-0.5,0.2-0.7,0.2s-0.5,0.1-0.7,0.1h-4.3c-0.3,0-0.7-0.1-1.1-0.2c-0.4-0.1-0.7-0.3-1.1-0.6
		c-0.3-0.3-0.6-0.6-0.8-1s-0.3-0.9-0.3-1.5v-3.2c0-0.6,0.1-1.1,0.3-1.5s0.5-0.8,0.8-1c0.3-0.3,0.7-0.5,1.1-0.6
		c0.4-0.1,0.7-0.2,1.1-0.2h4.3c0.6,0,1.1,0.1,1.5,0.3c0.4,0.2,0.8,0.5,1,0.8c0.3,0.3,0.5,0.7,0.6,1.1c0.1,0.4,0.2,0.7,0.2,1.1V240.8
		z M327.4,237.6c0-0.3-0.1-0.6-0.2-0.7c-0.2-0.2-0.4-0.2-0.7-0.2h-4.2c-0.3,0-0.6,0.1-0.7,0.2c-0.2,0.2-0.2,0.4-0.2,0.7v3.2
		c0,0.3,0.1,0.5,0.2,0.7c0.2,0.2,0.4,0.2,0.7,0.2h4.2c0.3,0,0.6-0.1,0.7-0.2c0.2-0.2,0.2-0.4,0.2-0.7V237.6z"/>
	<path class="st0" d="M340.5,244.1h-2.4v-6.5c0-0.3-0.1-0.5-0.2-0.7c-0.2-0.2-0.4-0.2-0.7-0.2h-3.1v7.5h-2.4v-8.6
		c0-0.2,0-0.3,0.1-0.5c0.1-0.1,0.1-0.3,0.3-0.4c0.1-0.1,0.2-0.2,0.4-0.2s0.3-0.1,0.5-0.1h4.3c0.3,0,0.7,0.1,1.1,0.2
		c0.4,0.1,0.7,0.3,1.1,0.6v-0.7h3.2c0.2,0,0.5,0,0.7,0.1c0.2,0.1,0.5,0.1,0.7,0.2c0.2,0.1,0.5,0.3,0.7,0.4c0.2,0.2,0.4,0.4,0.6,0.6
		c0.2,0.2,0.3,0.5,0.4,0.8c0.1,0.3,0.2,0.7,0.2,1.1v6.5h-2.4v-6.5c0-0.3-0.1-0.5-0.2-0.7c-0.2-0.2-0.4-0.2-0.7-0.2h-2.1
		c0.1,0.3,0.1,0.6,0.1,0.9V244.1z"/>
	<path class="st0" d="M358.1,240.8c0,0.3-0.1,0.7-0.2,1.1c-0.1,0.4-0.3,0.7-0.6,1.1c-0.3,0.3-0.6,0.6-1,0.8
		c-0.4,0.2-0.9,0.3-1.5,0.3h-4.3c-0.3,0-0.7-0.1-1.1-0.2c-0.4-0.1-0.7-0.3-1.1-0.6c-0.3-0.3-0.6-0.6-0.8-1c-0.2-0.4-0.3-0.9-0.3-1.5
		c0-0.3,0.1-0.7,0.2-1.1c0.1-0.4,0.3-0.7,0.6-1.1c0.3-0.3,0.6-0.6,1-0.8c0.4-0.2,0.9-0.3,1.5-0.3h4.3v2.3h-4.3
		c-0.3,0-0.6,0.1-0.7,0.3c-0.2,0.2-0.3,0.4-0.3,0.7c0,0.3,0.1,0.5,0.3,0.7c0.2,0.2,0.4,0.3,0.7,0.3h4.2c0.3,0,0.6-0.1,0.7-0.3
		c0.2-0.2,0.3-0.4,0.3-0.7v-3.3c0-0.3-0.1-0.6-0.3-0.7c-0.2-0.2-0.4-0.3-0.7-0.3h-5.2v-2.2h5.2c0.3,0,0.7,0.1,1.1,0.2
		c0.4,0.1,0.7,0.3,1.1,0.6c0.3,0.3,0.6,0.6,0.8,1c0.2,0.4,0.3,0.9,0.3,1.5V240.8z"/>
	<path class="st0" d="M369,236.6h-4.1v7.5h-2.4v-7.5h-3.1v-2.4h3.1v-3.2h2.4v3.2h4.1V236.6z"/>
	<path class="st0" d="M381.1,237.5c0,0.3-0.1,0.7-0.2,1.1c-0.1,0.4-0.3,0.7-0.6,1.1c-0.3,0.3-0.6,0.6-1,0.8
		c-0.4,0.2-0.9,0.3-1.5,0.3h-4.3v-2.2h4.3c0.3,0,0.6-0.1,0.7-0.3s0.3-0.4,0.3-0.7c0-0.3-0.1-0.6-0.3-0.7c-0.2-0.2-0.4-0.3-0.7-0.3
		h-4.3c-0.3,0-0.6,0.1-0.7,0.3c-0.2,0.2-0.3,0.4-0.3,0.7v3.3c0,0.3,0.1,0.6,0.3,0.7c0.2,0.2,0.4,0.3,0.7,0.3h4.2v2.3h-4.3
		c-0.3,0-0.7-0.1-1.1-0.2c-0.4-0.1-0.7-0.3-1.1-0.6c-0.3-0.3-0.6-0.6-0.8-1c-0.2-0.4-0.3-0.9-0.3-1.5v-3.3c0-0.3,0.1-0.7,0.2-1.1
		c0.1-0.4,0.3-0.7,0.6-1.1c0.3-0.3,0.6-0.6,1-0.8c0.4-0.2,0.9-0.3,1.5-0.3h4.3c0.3,0,0.7,0.1,1.1,0.2c0.4,0.1,0.7,0.3,1.1,0.6
		c0.3,0.3,0.6,0.6,0.8,1C381,236.4,381.1,236.9,381.1,237.5z"/>
	<path class="st0" d="M396.2,244.1H392c-0.3,0-0.7-0.1-1.1-0.2c-0.4-0.1-0.7-0.3-1.1-0.6c-0.3-0.3-0.6-0.6-0.8-1s-0.3-0.9-0.3-1.5
		v-6.5h2.4v6.5c0,0.3,0.1,0.5,0.2,0.7c0.2,0.2,0.4,0.2,0.7,0.2h4.2V244.1z M399.5,245c0,0.4-0.1,0.8-0.2,1.1
		c-0.1,0.3-0.2,0.6-0.4,0.9c-0.2,0.2-0.4,0.5-0.6,0.6c-0.2,0.2-0.5,0.3-0.7,0.4s-0.5,0.2-0.7,0.2c-0.2,0.1-0.5,0.1-0.7,0.1H392V246
		h4.3c0.3,0,0.6-0.1,0.7-0.2c0.2-0.2,0.2-0.4,0.2-0.7v-10.8h2.4V245z"/>
	<path class="st0" d="M412.5,240.8c0,0.4-0.1,0.8-0.2,1.1c-0.1,0.3-0.2,0.6-0.4,0.9c-0.2,0.2-0.4,0.5-0.6,0.6
		c-0.2,0.2-0.5,0.3-0.7,0.4c-0.2,0.1-0.5,0.2-0.7,0.2s-0.5,0.1-0.7,0.1h-4.3c-0.3,0-0.7-0.1-1.1-0.2c-0.4-0.1-0.7-0.3-1.1-0.6
		c-0.3-0.3-0.6-0.6-0.8-1s-0.3-0.9-0.3-1.5v-3.2c0-0.6,0.1-1.1,0.3-1.5s0.5-0.8,0.8-1c0.3-0.3,0.7-0.5,1.1-0.6
		c0.4-0.1,0.7-0.2,1.1-0.2h4.3c0.6,0,1.1,0.1,1.5,0.3c0.4,0.2,0.8,0.5,1,0.8c0.3,0.3,0.5,0.7,0.6,1.1c0.1,0.4,0.2,0.7,0.2,1.1V240.8
		z M410.1,237.6c0-0.3-0.1-0.6-0.2-0.7c-0.2-0.2-0.4-0.2-0.7-0.2h-4.2c-0.3,0-0.6,0.1-0.7,0.2c-0.2,0.2-0.2,0.4-0.2,0.7v3.2
		c0,0.3,0.1,0.5,0.2,0.7c0.2,0.2,0.4,0.2,0.7,0.2h4.2c0.3,0,0.6-0.1,0.7-0.2c0.2-0.2,0.2-0.4,0.2-0.7V237.6z"/>
	<path class="st0" d="M425.2,242.9c0,0.2,0,0.3-0.1,0.5c-0.1,0.1-0.1,0.3-0.3,0.4c-0.1,0.1-0.2,0.2-0.4,0.3
		c-0.1,0.1-0.3,0.1-0.5,0.1h-5.3c-0.3,0-0.6,0-0.9-0.1c-0.3-0.1-0.7-0.2-1-0.3s-0.6-0.3-0.9-0.6c-0.3-0.2-0.6-0.5-0.8-0.8
		c-0.2-0.3-0.4-0.7-0.5-1.1c-0.1-0.4-0.2-0.9-0.2-1.4v-5.4h2.4v5.4c0,0.3,0.1,0.6,0.2,0.8c0.1,0.2,0.3,0.5,0.4,0.6s0.4,0.3,0.6,0.4
		s0.5,0.1,0.8,0.1h4.1v-7.5h2.4V242.9z"/>
	<path class="st0" d="M436,236.6h-5.3c-0.3,0-0.6,0.1-0.7,0.2c-0.2,0.2-0.2,0.4-0.2,0.7v6.5h-2.4v-6.5c0-0.4,0.1-0.8,0.2-1.1
		c0.1-0.3,0.2-0.6,0.4-0.8c0.2-0.2,0.4-0.5,0.6-0.6c0.2-0.2,0.5-0.3,0.7-0.4c0.2-0.1,0.5-0.2,0.7-0.2c0.3-0.1,0.5-0.1,0.7-0.1h5.3
		V236.6z"/>
	<path class="st0" d="M447.8,244.1h-1.1c-0.3,0-0.7-0.1-1.1-0.2c-0.4-0.1-0.7-0.3-1.1-0.6c-0.3-0.3-0.6-0.6-0.8-1s-0.3-0.9-0.3-1.5
		v-10.7h2.4v10.7c0,0.3,0.1,0.5,0.3,0.7c0.2,0.2,0.4,0.3,0.7,0.3h1.1V244.1z"/>
	<path class="st0" d="M451.7,232.2h-2.4v-2.1h2.4V232.2z M451.7,244.1h-2.4v-9.8h2.4V244.1z"/>
	<path class="st0" d="M462.6,232.4h-5.3c-0.3,0-0.6,0.1-0.7,0.2c-0.2,0.2-0.2,0.4-0.2,0.7v10.8H454v-10.8c0-0.4,0.1-0.8,0.2-1.1
		c0.1-0.3,0.2-0.6,0.4-0.8c0.2-0.2,0.4-0.5,0.6-0.6c0.2-0.2,0.5-0.3,0.7-0.4c0.2-0.1,0.5-0.2,0.7-0.2c0.2-0.1,0.5-0.1,0.7-0.1h5.3
		V232.4z M462.6,236.6h-5.3v-2.4h5.3V236.6z"/>
	<path class="st0" d="M474.7,237.5c0,0.3-0.1,0.7-0.2,1.1c-0.1,0.4-0.3,0.7-0.6,1.1c-0.3,0.3-0.6,0.6-1,0.8
		c-0.4,0.2-0.9,0.3-1.5,0.3h-4.3v-2.2h4.3c0.3,0,0.6-0.1,0.7-0.3s0.3-0.4,0.3-0.7c0-0.3-0.1-0.6-0.3-0.7c-0.2-0.2-0.4-0.3-0.7-0.3
		h-4.3c-0.3,0-0.6,0.1-0.7,0.3c-0.2,0.2-0.3,0.4-0.3,0.7v3.3c0,0.3,0.1,0.6,0.3,0.7c0.2,0.2,0.4,0.3,0.7,0.3h4.2v2.3h-4.3
		c-0.3,0-0.7-0.1-1.1-0.2c-0.4-0.1-0.7-0.3-1.1-0.6c-0.3-0.3-0.6-0.6-0.8-1c-0.2-0.4-0.3-0.9-0.3-1.5v-3.3c0-0.3,0.1-0.7,0.2-1.1
		c0.1-0.4,0.3-0.7,0.6-1.1c0.3-0.3,0.6-0.6,1-0.8c0.4-0.2,0.9-0.3,1.5-0.3h4.3c0.3,0,0.7,0.1,1.1,0.2c0.4,0.1,0.7,0.3,1.1,0.6
		c0.3,0.3,0.6,0.6,0.8,1C474.6,236.4,474.7,236.9,474.7,237.5z"/>
</g>
<path class="st1" d="M221.6,211.5c0,1.3-0.2,2.6-0.6,4c-0.4,1.4-1.1,2.8-2.1,4c-1,1.2-2.3,2.3-3.8,3.1c-1.6,0.8-3.5,1.2-5.8,1.2
	h-38.6c-0.7,0-1.4-0.1-2-0.4c-0.6-0.3-1.2-0.6-1.6-1.1c-0.5-0.5-0.8-1-1.1-1.6c-0.3-0.6-0.4-1.3-0.4-2v-45.9c0-0.7,0.1-1.4,0.4-2
	c0.3-0.6,0.6-1.2,1.1-1.6c0.5-0.5,1-0.8,1.6-1.1c0.6-0.3,1.3-0.4,2-0.4h34c1.3,0,2.6,0.2,4,0.7c1.4,0.4,2.8,1.2,4,2.1
	c1.2,1,2.3,2.3,3.1,3.8c0.8,1.6,1.2,3.5,1.2,5.8v1.9c0,1.8-0.3,3.7-0.9,5.8c-0.6,2.1-1.6,4-2.9,5.9c1.1,0.7,2.2,1.6,3.2,2.5
	c1,1,1.9,2.1,2.6,3.4c0.8,1.3,1.4,2.8,1.8,4.4c0.4,1.6,0.7,3.5,0.7,5.4V211.5z M211.4,209.5c0-1.3-0.2-2.5-0.6-3.6
	c-0.4-1.1-1-2-1.8-2.7c-0.8-0.8-1.7-1.3-2.7-1.7c-1.1-0.4-2.3-0.6-3.6-0.6h-22.9v-10.3h18.4c1.3,0,2.5-0.2,3.6-0.6
	c1.1-0.4,2-1,2.7-1.7c0.8-0.8,1.3-1.7,1.7-2.7c0.4-1.1,0.6-2.3,0.6-3.6V180c0-1.5-0.7-2.2-2.1-2.2h-29v35.8h33.6c0.2,0,0.4,0,0.7,0
	c0.3,0,0.5-0.1,0.7-0.2c0.2-0.1,0.4-0.4,0.5-0.7c0.2-0.3,0.2-0.7,0.2-1.3V209.5z"/>
<path class="st1" d="M266.9,191.7H244c-1.4,0-2.4,0.3-3.1,1c-0.7,0.7-1.1,1.7-1.1,3v28.1h-10.2v-28.1c0-1.7,0.2-3.3,0.7-4.7
	c0.4-1.4,1-2.6,1.8-3.7c0.7-1.1,1.6-2,2.6-2.7c1-0.7,2-1.4,3-1.8c1.1-0.5,2.1-0.8,3.2-1c1.1-0.2,2.1-0.3,3-0.3h23V191.7z"/>
<path class="st1" d="M320.1,209.5c0,1.7-0.2,3.3-0.7,4.7c-0.4,1.4-1,2.6-1.8,3.7c-0.7,1.1-1.6,2-2.5,2.7c-1,0.7-2,1.4-3,1.8
	c-1.1,0.5-2.1,0.8-3.2,1c-1.1,0.2-2.1,0.3-3.1,0.3h-18.4c-1.4,0-2.9-0.2-4.6-0.7c-1.7-0.5-3.2-1.3-4.6-2.4c-1.4-1.1-2.6-2.6-3.6-4.4
	c-1-1.8-1.4-4-1.4-6.7v-13.8c0-2.6,0.5-4.8,1.4-6.6c1-1.8,2.1-3.3,3.6-4.4c1.4-1.1,3-2,4.6-2.4c1.7-0.5,3.2-0.7,4.6-0.7h18.4
	c2.6,0,4.8,0.5,6.7,1.4c1.8,0.9,3.3,2.1,4.4,3.5c1.1,1.4,1.9,3,2.4,4.6c0.5,1.7,0.8,3.2,0.8,4.7V209.5z M310,195.8
	c0-1.4-0.4-2.5-1.1-3.1c-0.7-0.7-1.7-1-3.1-1h-18.3c-1.4,0-2.4,0.3-3.1,1c-0.7,0.7-1.1,1.7-1.1,3v13.8c0,1.3,0.4,2.3,1.1,3.1
	c0.7,0.7,1.7,1.1,3.1,1.1h18.3c1.4,0,2.4-0.4,3.1-1.1c0.7-0.7,1-1.7,1-3.1V195.8z"/>
<path class="st1" d="M339.8,167.6h-10.2v2.5c3.4,0,6.8-0.1,10.2-0.2V167.6z"/>
<path class="st1" d="M329.6,170.1v53.7h10.2v-54.3C336.4,169.7,333,170,329.6,170.1z"/>
<path class="st1" d="M379.1,181.4h-16.3l-18.6,15c-0.6,0.4-1,1-1.4,1.6c-0.3,0.6-0.5,1.3-0.6,2.1c-0.1,1.6,0.5,2.9,1.6,3.9
	l20.5,19.8h14.7l-24-23.1L379.1,181.4z"/>
<path class="st1" d="M429.6,195.5c0,1.4-0.2,2.9-0.7,4.6c-0.5,1.6-1.3,3.1-2.4,4.5c-1.1,1.4-2.6,2.6-4.3,3.5c-1.8,0.9-4,1.4-6.5,1.4
	h-18.4v-9.7h18.4c1.4,0,2.5-0.4,3.2-1.3c0.8-0.8,1.1-1.9,1.1-3.2c0-1.3-0.4-2.4-1.3-3.1c-0.8-0.8-1.9-1.1-3.1-1.1h-18.4
	c-1.4,0-2.5,0.4-3.2,1.3c-0.8,0.8-1.1,1.9-1.1,3.2v14.2c0,1.4,0.4,2.4,1.3,3.2s1.9,1.1,3.2,1.1h18.3v9.7h-18.4
	c-1.4,0-2.9-0.2-4.6-0.7c-1.6-0.5-3.1-1.3-4.5-2.4c-1.4-1.1-2.6-2.6-3.5-4.3c-0.9-1.8-1.4-4-1.4-6.5v-14.3c0-1.4,0.2-2.9,0.7-4.6
	c0.5-1.6,1.3-3.1,2.4-4.5c1.1-1.4,2.6-2.6,4.3-3.5c1.8-0.9,4-1.4,6.5-1.4h18.4c1.4,0,2.9,0.2,4.6,0.7c1.6,0.5,3.1,1.3,4.5,2.4
	c1.4,1.1,2.6,2.6,3.5,4.3C429.2,190.8,429.6,192.9,429.6,195.5z"/>
<path class="st1" d="M474.1,191.7h-22.9c-1.4,0-2.4,0.3-3.1,1c-0.7,0.7-1.1,1.7-1.1,3v28.1h-10.2v-28.1c0-1.7,0.2-3.3,0.7-4.7
	c0.4-1.4,1-2.6,1.8-3.7c0.7-1.1,1.6-2,2.6-2.7s2-1.4,3-1.8c1.1-0.5,2.1-0.8,3.2-1c1.1-0.2,2.1-0.3,3-0.3h23V191.7z"/>
<g>
	<path class="st0" d="M126.3,168.8l0,10.8c11.4,3.5,18.9,13.9,18.9,26.4c0,15.4-12.6,27.9-28.1,27.9S89.1,221.4,89.1,206
		c0-12.5,7.5-22.8,18.9-26.4v-10.8c-16.9,3.8-28.7,18.9-28.7,37.1c0,21.1,16.9,38.3,37.9,38.3S155,227.1,155,206
		C155,187.8,143.2,172.6,126.3,168.8z"/>
</g>
<path class="st1" d="M117.2,178.1c1.9,0,3.8,0.2,5.7,0.6v-10.3c-1.9-0.3-3.8-0.4-5.7-0.4s-3.8,0.1-5.7,0.4v10.3
	C113.3,178.3,115.2,178.1,117.2,178.1z"/>
<path class="st1" d="M112,182c1.4-0.3,3.2-0.5,5.3-0.5c2.1,0,4,0.2,5.4,0.5c0,15.9,0,31.9,0,47.8c-3.6,0.8-7.1,0.8-10.7,0
	C112,214,112,198,112,182z"/>
</svg>
