<svg width="400" height="84" xmlns="http://www.w3.org/2000/svg" xml:space="preserve" version="1.1">
 <g>
	<path fill="#144578" d="m216.2,79.1l-2.4,0l0,-3.2l-8.3,0l0,3.2l-2.4,0l0,-6.5c0,-1 0.2,-1.8 0.5,-2.6s0.8,-1.5 1.4,-2.1c0.6,-0.6 1.3,-1 2.1,-1.3c0.8,-0.3 1.7,-0.5 2.6,-0.5l5.3,0c0.2,0 0.3,0 0.5,0.1c0.1,0.1 0.3,0.1 0.4,0.3c0.1,0.1 0.2,0.2 0.3,0.4c0.1,0.1 0.1,0.3 0.1,0.5l0,11.7l-0.1,0zm-10.6,-5.6l8.3,0l0,-5.1l-4.1,0c-0.1,0 -0.2,0 -0.5,0c-0.2,0 -0.5,0.1 -0.8,0.2c-0.3,0.1 -0.6,0.2 -1,0.4s-0.7,0.4 -0.9,0.7s-0.5,0.7 -0.7,1.2s-0.3,1 -0.3,1.7l0,0.9z"/>
	<path fill="#144578" d="m229.4,77.9c0,0.2 0,0.3 -0.1,0.5c-0.1,0.1 -0.1,0.3 -0.3,0.4c-0.1,0.1 -0.2,0.2 -0.4,0.3c-0.1,0.1 -0.3,0.1 -0.5,0.1l-5.3,0c-0.3,0 -0.6,0 -0.9,-0.1c-0.3,-0.1 -0.7,-0.2 -1,-0.3s-0.6,-0.3 -0.9,-0.6c-0.3,-0.2 -0.6,-0.5 -0.8,-0.8c-0.2,-0.3 -0.4,-0.7 -0.5,-1.1c-0.1,-0.4 -0.2,-0.9 -0.2,-1.4l0,-5.4l2.4,0l0,5.4c0,0.3 0.1,0.6 0.2,0.8c0.1,0.2 0.3,0.5 0.4,0.6s0.4,0.3 0.6,0.4s0.5,0.1 0.8,0.1l4.1,0l0,-7.5l2.4,0l0,8.6z"/>
	<path fill="#144578" d="m240.5,71.6l-4.1,0l0,7.5l-2.4,0l0,-7.5l-3,0l0,-2.4l3.1,0l0,-3.2l2.4,0l0,3.2l4.1,0l0,2.4l-0.1,0z"/>
	<path fill="#144578" d="m252.7,75.8c0,0.4 -0.1,0.8 -0.2,1.1c-0.1,0.3 -0.2,0.6 -0.4,0.9c-0.2,0.2 -0.4,0.5 -0.6,0.6c-0.2,0.2 -0.5,0.3 -0.7,0.4c-0.2,0.1 -0.5,0.2 -0.7,0.2s-0.5,0.1 -0.7,0.1l-4.3,0c-0.3,0 -0.7,-0.1 -1.1,-0.2c-0.4,-0.1 -0.7,-0.3 -1.1,-0.6c-0.3,-0.3 -0.6,-0.6 -0.8,-1s-0.3,-0.9 -0.3,-1.5l0,-3.2c0,-0.6 0.1,-1.1 0.3,-1.5s0.5,-0.8 0.8,-1c0.3,-0.3 0.7,-0.5 1.1,-0.6c0.4,-0.1 0.7,-0.2 1.1,-0.2l4.3,0c0.6,0 1.1,0.1 1.5,0.3c0.4,0.2 0.8,0.5 1,0.8c0.3,0.3 0.5,0.7 0.6,1.1c0.1,0.4 0.2,0.7 0.2,1.1l0,3.2zm-2.3,-3.2c0,-0.3 -0.1,-0.6 -0.2,-0.7c-0.2,-0.2 -0.4,-0.2 -0.7,-0.2l-4.2,0c-0.3,0 -0.6,0.1 -0.7,0.2c-0.2,0.2 -0.2,0.4 -0.2,0.7l0,3.2c0,0.3 0.1,0.5 0.2,0.7c0.2,0.2 0.4,0.2 0.7,0.2l4.2,0c0.3,0 0.6,-0.1 0.7,-0.2c0.2,-0.2 0.2,-0.4 0.2,-0.7l0,-3.2z"/>
	<path fill="#144578" d="m263.5,79.1l-2.4,0l0,-6.5c0,-0.3 -0.1,-0.5 -0.2,-0.7c-0.2,-0.2 -0.4,-0.2 -0.7,-0.2l-3.1,0l0,7.5l-2.4,0l0,-8.6c0,-0.2 0,-0.3 0.1,-0.5c0.1,-0.1 0.1,-0.3 0.3,-0.4c0.1,-0.1 0.2,-0.2 0.4,-0.2s0.3,-0.1 0.5,-0.1l4.3,0c0.3,0 0.7,0.1 1.1,0.2c0.4,0.1 0.7,0.3 1.1,0.6l0,-0.7l3.2,0c0.2,0 0.5,0 0.7,0.1c0.2,0.1 0.5,0.1 0.7,0.2c0.2,0.1 0.5,0.3 0.7,0.4c0.2,0.2 0.4,0.4 0.6,0.6c0.2,0.2 0.3,0.5 0.4,0.8c0.1,0.3 0.2,0.7 0.2,1.1l0,6.5l-2.4,0l0,-6.5c0,-0.3 -0.1,-0.5 -0.2,-0.7c-0.2,-0.2 -0.4,-0.2 -0.7,-0.2l-2.1,0c0.1,0.3 0.1,0.6 0.1,0.9l0,6.4l-0.2,0z"/>
	<path fill="#144578" d="m281.1,75.8c0,0.3 -0.1,0.7 -0.2,1.1c-0.1,0.4 -0.3,0.7 -0.6,1.1c-0.3,0.3 -0.6,0.6 -1,0.8c-0.4,0.2 -0.9,0.3 -1.5,0.3l-4.3,0c-0.3,0 -0.7,-0.1 -1.1,-0.2c-0.4,-0.1 -0.7,-0.3 -1.1,-0.6c-0.3,-0.3 -0.6,-0.6 -0.8,-1c-0.2,-0.4 -0.3,-0.9 -0.3,-1.5c0,-0.3 0.1,-0.7 0.2,-1.1c0.1,-0.4 0.3,-0.7 0.6,-1.1c0.3,-0.3 0.6,-0.6 1,-0.8c0.4,-0.2 0.9,-0.3 1.5,-0.3l4.3,0l0,2.3l-4.3,0c-0.3,0 -0.6,0.1 -0.7,0.3c-0.2,0.2 -0.3,0.4 -0.3,0.7c0,0.3 0.1,0.5 0.3,0.7c0.2,0.2 0.4,0.3 0.7,0.3l4.2,0c0.3,0 0.6,-0.1 0.7,-0.3c0.2,-0.2 0.3,-0.4 0.3,-0.7l0,-3.3c0,-0.3 -0.1,-0.6 -0.3,-0.7c-0.2,-0.2 -0.4,-0.3 -0.7,-0.3l-5.2,0l0,-2.2l5.2,0c0.3,0 0.7,0.1 1.1,0.2c0.4,0.1 0.7,0.3 1.1,0.6c0.3,0.3 0.6,0.6 0.8,1c0.2,0.4 0.3,0.9 0.3,1.5l0,3.2l0.1,0z"/>
	<path fill="#144578" d="m292,71.6l-4.1,0l0,7.5l-2.4,0l0,-7.5l-3.1,0l0,-2.4l3.1,0l0,-3.2l2.4,0l0,3.2l4.1,0l0,2.4z"/>
	<path fill="#144578" d="m304.1,72.5c0,0.3 -0.1,0.7 -0.2,1.1c-0.1,0.4 -0.3,0.7 -0.6,1.1c-0.3,0.3 -0.6,0.6 -1,0.8c-0.4,0.2 -0.9,0.3 -1.5,0.3l-4.3,0l0,-2.2l4.3,0c0.3,0 0.6,-0.1 0.7,-0.3s0.3,-0.4 0.3,-0.7c0,-0.3 -0.1,-0.6 -0.3,-0.7c-0.2,-0.2 -0.4,-0.3 -0.7,-0.3l-4.3,0c-0.3,0 -0.6,0.1 -0.7,0.3c-0.2,0.2 -0.3,0.4 -0.3,0.7l0,3.3c0,0.3 0.1,0.6 0.3,0.7c0.2,0.2 0.4,0.3 0.7,0.3l4.2,0l0,2.3l-4.3,0c-0.3,0 -0.7,-0.1 -1.1,-0.2c-0.4,-0.1 -0.7,-0.3 -1.1,-0.6c-0.3,-0.3 -0.6,-0.6 -0.8,-1c-0.2,-0.4 -0.3,-0.9 -0.3,-1.5l0,-3.3c0,-0.3 0.1,-0.7 0.2,-1.1c0.1,-0.4 0.3,-0.7 0.6,-1.1c0.3,-0.3 0.6,-0.6 1,-0.8c0.4,-0.2 0.9,-0.3 1.5,-0.3l4.3,0c0.3,0 0.7,0.1 1.1,0.2c0.4,0.1 0.7,0.3 1.1,0.6c0.3,0.3 0.6,0.6 0.8,1c0.3,0.3 0.4,0.8 0.4,1.4z"/>
	<path fill="#144578" d="m319.2,79.1l-4.2,0c-0.3,0 -0.7,-0.1 -1.1,-0.2c-0.4,-0.1 -0.7,-0.3 -1.1,-0.6c-0.3,-0.3 -0.6,-0.6 -0.8,-1s-0.3,-0.9 -0.3,-1.5l0,-6.5l2.4,0l0,6.5c0,0.3 0.1,0.5 0.2,0.7c0.2,0.2 0.4,0.2 0.7,0.2l4.2,0l0,2.4zm3.3,0.9c0,0.4 -0.1,0.8 -0.2,1.1c-0.1,0.3 -0.2,0.6 -0.4,0.9c-0.2,0.2 -0.4,0.5 -0.6,0.6c-0.2,0.2 -0.5,0.3 -0.7,0.4s-0.5,0.2 -0.7,0.2c-0.2,0.1 -0.5,0.1 -0.7,0.1l-4.2,0l0,-2.3l4.3,0c0.3,0 0.6,-0.1 0.7,-0.2c0.2,-0.2 0.2,-0.4 0.2,-0.7l0,-10.8l2.4,0l0,10.7l-0.1,0z"/>
	<path fill="#144578" d="m335.5,75.8c0,0.4 -0.1,0.8 -0.2,1.1c-0.1,0.3 -0.2,0.6 -0.4,0.9c-0.2,0.2 -0.4,0.5 -0.6,0.6c-0.2,0.2 -0.5,0.3 -0.7,0.4c-0.2,0.1 -0.5,0.2 -0.7,0.2s-0.5,0.1 -0.7,0.1l-4.3,0c-0.3,0 -0.7,-0.1 -1.1,-0.2c-0.4,-0.1 -0.7,-0.3 -1.1,-0.6c-0.3,-0.3 -0.6,-0.6 -0.8,-1s-0.3,-0.9 -0.3,-1.5l0,-3.2c0,-0.6 0.1,-1.1 0.3,-1.5s0.5,-0.8 0.8,-1c0.3,-0.3 0.7,-0.5 1.1,-0.6c0.4,-0.1 0.7,-0.2 1.1,-0.2l4.3,0c0.6,0 1.1,0.1 1.5,0.3c0.4,0.2 0.8,0.5 1,0.8c0.3,0.3 0.5,0.7 0.6,1.1c0.1,0.4 0.2,0.7 0.2,1.1l0,3.2zm-2.4,-3.2c0,-0.3 -0.1,-0.6 -0.2,-0.7c-0.2,-0.2 -0.4,-0.2 -0.7,-0.2l-4.2,0c-0.3,0 -0.6,0.1 -0.7,0.2c-0.2,0.2 -0.2,0.4 -0.2,0.7l0,3.2c0,0.3 0.1,0.5 0.2,0.7c0.2,0.2 0.4,0.2 0.7,0.2l4.2,0c0.3,0 0.6,-0.1 0.7,-0.2c0.2,-0.2 0.2,-0.4 0.2,-0.7l0,-3.2z"/>
	<path fill="#144578" d="m348.2,77.9c0,0.2 0,0.3 -0.1,0.5c-0.1,0.1 -0.1,0.3 -0.3,0.4c-0.1,0.1 -0.2,0.2 -0.4,0.3c-0.1,0.1 -0.3,0.1 -0.5,0.1l-5.3,0c-0.3,0 -0.6,0 -0.9,-0.1c-0.3,-0.1 -0.7,-0.2 -1,-0.3s-0.6,-0.3 -0.9,-0.6c-0.3,-0.2 -0.6,-0.5 -0.8,-0.8c-0.2,-0.3 -0.4,-0.7 -0.5,-1.1c-0.1,-0.4 -0.2,-0.9 -0.2,-1.4l0,-5.4l2.4,0l0,5.4c0,0.3 0.1,0.6 0.2,0.8c0.1,0.2 0.3,0.5 0.4,0.6s0.4,0.3 0.6,0.4s0.5,0.1 0.8,0.1l4.1,0l0,-7.5l2.4,0l0,8.6z"/>
	<path fill="#144578" d="m359,71.6l-5.3,0c-0.3,0 -0.6,0.1 -0.7,0.2c-0.2,0.2 -0.2,0.4 -0.2,0.7l0,6.5l-2.4,0l0,-6.5c0,-0.4 0.1,-0.8 0.2,-1.1c0.1,-0.3 0.2,-0.6 0.4,-0.8c0.2,-0.2 0.4,-0.5 0.6,-0.6c0.2,-0.2 0.5,-0.3 0.7,-0.4c0.2,-0.1 0.5,-0.2 0.7,-0.2c0.3,-0.1 0.5,-0.1 0.7,-0.1l5.3,0l0,2.3z"/>
	<path fill="#144578" d="m370.8,79.1l-1.1,0c-0.3,0 -0.7,-0.1 -1.1,-0.2c-0.4,-0.1 -0.7,-0.3 -1.1,-0.6c-0.3,-0.3 -0.6,-0.6 -0.8,-1s-0.3,-0.9 -0.3,-1.5l0,-10.7l2.4,0l0,10.7c0,0.3 0.1,0.5 0.3,0.7c0.2,0.2 0.4,0.3 0.7,0.3l1.1,0l0,2.3l-0.1,0z"/>
	<path fill="#144578" d="m374.7,67.2l-2.4,0l0,-2.1l2.4,0l0,2.1zm0,11.9l-2.4,0l0,-9.8l2.4,0l0,9.8z"/>
	<path fill="#144578" d="m385.6,67.4l-5.3,0c-0.3,0 -0.6,0.1 -0.7,0.2c-0.2,0.2 -0.2,0.4 -0.2,0.7l0,10.8l-2.4,0l0,-10.8c0,-0.4 0.1,-0.8 0.2,-1.1c0.1,-0.3 0.2,-0.6 0.4,-0.8c0.2,-0.2 0.4,-0.5 0.6,-0.6c0.2,-0.2 0.5,-0.3 0.7,-0.4c0.2,-0.1 0.5,-0.2 0.7,-0.2c0.2,-0.1 0.5,-0.1 0.7,-0.1l5.3,0l0,2.3zm0,4.2l-5.3,0l0,-2.4l5.3,0l0,2.4z"/>
	<path fill="#144578" d="m397.7,72.5c0,0.3 -0.1,0.7 -0.2,1.1c-0.1,0.4 -0.3,0.7 -0.6,1.1c-0.3,0.3 -0.6,0.6 -1,0.8c-0.4,0.2 -0.9,0.3 -1.5,0.3l-4.3,0l0,-2.2l4.3,0c0.3,0 0.6,-0.1 0.7,-0.3s0.3,-0.4 0.3,-0.7c0,-0.3 -0.1,-0.6 -0.3,-0.7c-0.2,-0.2 -0.4,-0.3 -0.7,-0.3l-4.3,0c-0.3,0 -0.6,0.1 -0.7,0.3c-0.2,0.2 -0.3,0.4 -0.3,0.7l0,3.3c0,0.3 0.1,0.6 0.3,0.7c0.2,0.2 0.4,0.3 0.7,0.3l4.2,0l0,2.3l-4.3,0c-0.3,0 -0.7,-0.1 -1.1,-0.2c-0.4,-0.1 -0.7,-0.3 -1.1,-0.6c-0.3,-0.3 -0.6,-0.6 -0.8,-1c-0.2,-0.4 -0.3,-0.9 -0.3,-1.5l0,-3.3c0,-0.3 0.1,-0.7 0.2,-1.1c0.1,-0.4 0.3,-0.7 0.6,-1.1c0.3,-0.3 0.6,-0.6 1,-0.8c0.4,-0.2 0.9,-0.3 1.5,-0.3l4.3,0c0.3,0 0.7,0.1 1.1,0.2c0.4,0.1 0.7,0.3 1.1,0.6c0.3,0.3 0.6,0.6 0.8,1c0.3,0.3 0.4,0.8 0.4,1.4z"/>
	<path fill="#3499CC" d="m144.6,46.5c0,1.3 -0.2,2.6 -0.6,4c-0.4,1.4 -1.1,2.8 -2.1,4c-1,1.2 -2.3,2.3 -3.8,3.1c-1.6,0.8 -3.5,1.2 -5.8,1.2l-38.6,0c-0.7,0 -1.4,-0.1 -2,-0.4c-0.6,-0.3 -1.2,-0.6 -1.6,-1.1c-0.5,-0.5 -0.8,-1 -1.1,-1.6c-0.3,-0.6 -0.4,-1.3 -0.4,-2l0,-45.9c0,-0.7 0.1,-1.4 0.4,-2c0.3,-0.6 0.6,-1.2 1.1,-1.6c0.5,-0.5 1,-0.8 1.6,-1.1c0.6,-0.3 1.3,-0.4 2,-0.4l34,0c1.3,0 2.6,0.2 4,0.7c1.4,0.4 2.8,1.2 4,2.1c1.2,1 2.3,2.3 3.1,3.8c0.8,1.6 1.2,3.5 1.2,5.8l0,1.9c0,1.8 -0.3,3.7 -0.9,5.8c-0.6,2.1 -1.6,4 -2.9,5.9c1.1,0.7 2.2,1.6 3.2,2.5c1,1 1.9,2.1 2.6,3.4c0.8,1.3 1.4,2.8 1.8,4.4c0.4,1.6 0.7,3.5 0.7,5.4l0,2.1l0.1,0zm-10.2,-2c0,-1.3 -0.2,-2.5 -0.6,-3.6c-0.4,-1.1 -1,-2 -1.8,-2.7c-0.8,-0.8 -1.7,-1.3 -2.7,-1.7c-1.1,-0.4 -2.3,-0.6 -3.6,-0.6l-22.9,0l0,-10.3l18.4,0c1.3,0 2.5,-0.2 3.6,-0.6c1.1,-0.4 2,-1 2.7,-1.7c0.8,-0.8 1.3,-1.7 1.7,-2.7c0.4,-1.1 0.6,-2.3 0.6,-3.6l0,-2c0,-1.5 -0.7,-2.2 -2.1,-2.2l-29,0l0,35.8l33.6,0c0.2,0 0.4,0 0.7,0c0.3,0 0.5,-0.1 0.7,-0.2c0.2,-0.1 0.4,-0.4 0.5,-0.7c0.2,-0.3 0.2,-0.7 0.2,-1.3l0,-1.9z"/>
	<path fill="#3499CC" d="m189.9,26.7l-22.9,0c-1.4,0 -2.4,0.3 -3.1,1c-0.7,0.7 -1.1,1.7 -1.1,3l0,28.1l-10.2,0l0,-28.1c0,-1.7 0.2,-3.3 0.7,-4.7c0.4,-1.4 1,-2.6 1.8,-3.7c0.7,-1.1 1.6,-2 2.6,-2.7c1,-0.7 2,-1.4 3,-1.8c1.1,-0.5 2.1,-0.8 3.2,-1c1.1,-0.2 2.1,-0.3 3,-0.3l23,0l0,10.2z"/>
	<path fill="#3499CC" d="m243.1,44.5c0,1.7 -0.2,3.3 -0.7,4.7c-0.4,1.4 -1,2.6 -1.8,3.7c-0.7,1.1 -1.6,2 -2.5,2.7c-1,0.7 -2,1.4 -3,1.8c-1.1,0.5 -2.1,0.8 -3.2,1c-1.1,0.2 -2.1,0.3 -3.1,0.3l-18.4,0c-1.4,0 -2.9,-0.2 -4.6,-0.7c-1.7,-0.5 -3.2,-1.3 -4.6,-2.4c-1.4,-1.1 -2.6,-2.6 -3.6,-4.4c-1,-1.8 -1.4,-4 -1.4,-6.7l0,-13.8c0,-2.6 0.5,-4.8 1.4,-6.6c1,-1.8 2.1,-3.3 3.6,-4.4c1.4,-1.1 3,-2 4.6,-2.4c1.7,-0.5 3.2,-0.7 4.6,-0.7l18.4,0c2.6,0 4.8,0.5 6.7,1.4c1.8,0.9 3.3,2.1 4.4,3.5c1.1,1.4 1.9,3 2.4,4.6c0.5,1.7 0.8,3.2 0.8,4.7l0,13.7zm-10.1,-13.7c0,-1.4 -0.4,-2.5 -1.1,-3.1c-0.7,-0.7 -1.7,-1 -3.1,-1l-18.3,0c-1.4,0 -2.4,0.3 -3.1,1c-0.7,0.7 -1.1,1.7 -1.1,3l0,13.8c0,1.3 0.4,2.3 1.1,3.1c0.7,0.7 1.7,1.1 3.1,1.1l18.3,0c1.4,0 2.4,-0.4 3.1,-1.1c0.7,-0.7 1,-1.7 1,-3.1l0,-13.7l0.1,0z"/>
	<path fill="#3499CC" d="m262.8,2.6l-10.2,0l0,2.5c3.4,0 6.8,-0.1 10.2,-0.2l0,-2.3z"/>
	<path fill="#3499CC" d="m252.6,5.1l0,53.7l10.2,0l0,-54.3c-3.4,0.2 -6.8,0.5 -10.2,0.6z"/>
	<path fill="#3499CC" d="m302.1,16.4l-16.3,0l-18.6,15c-0.6,0.4 -1,1 -1.4,1.6c-0.3,0.6 -0.5,1.3 -0.6,2.1c-0.1,1.6 0.5,2.9 1.6,3.9l20.5,19.8l14.7,0l-24,-23.1l24.1,-19.3z"/>
	<path fill="#3499CC" d="m352.6,30.5c0,1.4 -0.2,2.9 -0.7,4.6c-0.5,1.6 -1.3,3.1 -2.4,4.5c-1.1,1.4 -2.6,2.6 -4.3,3.5c-1.8,0.9 -4,1.4 -6.5,1.4l-18.4,0l0,-9.7l18.4,0c1.4,0 2.5,-0.4 3.2,-1.3c0.8,-0.8 1.1,-1.9 1.1,-3.2c0,-1.3 -0.4,-2.4 -1.3,-3.1c-0.8,-0.8 -1.9,-1.1 -3.1,-1.1l-18.4,0c-1.4,0 -2.5,0.4 -3.2,1.3c-0.8,0.8 -1.1,1.9 -1.1,3.2l0,14.2c0,1.4 0.4,2.4 1.3,3.2s1.9,1.1 3.2,1.1l18.3,0l0,9.7l-18.4,0c-1.4,0 -2.9,-0.2 -4.6,-0.7c-1.6,-0.5 -3.1,-1.3 -4.5,-2.4c-1.4,-1.1 -2.6,-2.6 -3.5,-4.3c-0.9,-1.8 -1.4,-4 -1.4,-6.5l0,-14.3c0,-1.4 0.2,-2.9 0.7,-4.6c0.5,-1.6 1.3,-3.1 2.4,-4.5c1.1,-1.4 2.6,-2.6 4.3,-3.5c1.8,-0.9 4,-1.4 6.5,-1.4l18.4,0c1.4,0 2.9,0.2 4.6,0.7c1.6,0.5 3.1,1.3 4.5,2.4c1.4,1.1 2.6,2.6 3.5,4.3c1,1.8 1.4,3.9 1.4,6.5z"/>
	<path fill="#3499CC" d="m397.1,26.7l-22.9,0c-1.4,0 -2.4,0.3 -3.1,1c-0.7,0.7 -1.1,1.7 -1.1,3l0,28.1l-10.2,0l0,-28.1c0,-1.7 0.2,-3.3 0.7,-4.7c0.4,-1.4 1,-2.6 1.8,-3.7c0.7,-1.1 1.6,-2 2.6,-2.7s2,-1.4 3,-1.8c1.1,-0.5 2.1,-0.8 3.2,-1c1.1,-0.2 2.1,-0.3 3,-0.3l23,0l0,10.2z"/>
	<path fill="#144578" d="m49.3,3.8l0,10.8c11.4,3.5 18.9,13.9 18.9,26.4c0,15.4 -12.6,27.9 -28.1,27.9s-28,-12.5 -28,-27.9c0,-12.5 7.5,-22.8 18.9,-26.4l0,-10.8c-16.9,3.8 -28.7,18.9 -28.7,37.1c0,21.1 16.9,38.3 37.9,38.3s37.8,-17.1 37.8,-38.2c0,-18.2 -11.8,-33.4 -28.7,-37.2z"/>
	<path fill="#3499CC" d="m40.2,13.1c1.9,0 3.8,0.2 5.7,0.6l0,-10.3c-1.9,-0.3 -3.8,-0.4 -5.7,-0.4s-3.8,0.1 -5.7,0.4l0,10.3c1.8,-0.4 3.7,-0.6 5.7,-0.6z"/>
	<path fill="#3499CC" d="m35,17c1.4,-0.3 3.2,-0.5 5.3,-0.5c2.1,0 4,0.2 5.4,0.5c0,15.9 0,31.9 0,47.8c-3.6,0.8 -7.1,0.8 -10.7,0c0,-15.8 0,-31.8 0,-47.8z"/>
 </g>
</svg>
